<mxfile host="app.diagrams.net" modified="2024-04-08T17:07:22.473Z" agent="Mozilla/5.0 (Windows NT 10.0; Win64; x64; rv:124.0) Gecko/20100101 Firefox/124.0" etag="7TmxOYYKbzW66JKPCoPd" version="24.2.0" type="device">
  <diagram name="Page-1" id="BI-wrl8nO59t62M6zvBc">
    <mxGraphModel dx="1195" dy="652" grid="1" gridSize="10" guides="1" tooltips="1" connect="1" arrows="1" fold="1" page="1" pageScale="1" pageWidth="830" pageHeight="660" math="0" shadow="0">
      <root>
        <mxCell id="0" />
        <mxCell id="1" parent="0" />
        <mxCell id="bPBWY9slAnZx-zZx4ncS-4" value="" style="rounded=0;whiteSpace=wrap;html=1;" vertex="1" parent="1">
          <mxGeometry x="752.5" y="190" width="65" height="130" as="geometry" />
        </mxCell>
        <mxCell id="hyaC-WpukuONI3WBb8m--1" value="" style="rounded=0;whiteSpace=wrap;html=1;fillColor=#fff2cc;strokeColor=#d6b656;" parent="1" vertex="1">
          <mxGeometry width="730" height="640" as="geometry" />
        </mxCell>
        <mxCell id="hyaC-WpukuONI3WBb8m--2" value="System" style="text;html=1;align=center;verticalAlign=middle;whiteSpace=wrap;rounded=0;fontSize=16;" parent="1" vertex="1">
          <mxGeometry x="670" width="60" height="30" as="geometry" />
        </mxCell>
        <mxCell id="hyaC-WpukuONI3WBb8m--3" value="&lt;div&gt;super_user&lt;br&gt;(no root)&lt;/div&gt;" style="shape=umlActor;verticalLabelPosition=bottom;verticalAlign=top;html=1;outlineConnect=0;" parent="1" vertex="1">
          <mxGeometry x="770" y="220" width="30" height="60" as="geometry" />
        </mxCell>
        <mxCell id="hyaC-WpukuONI3WBb8m--8" value="Show user&amp;nbsp; list" style="ellipse;whiteSpace=wrap;html=1;" parent="1" vertex="1">
          <mxGeometry x="380" y="260" width="200" height="40" as="geometry" />
        </mxCell>
        <mxCell id="bPBWY9slAnZx-zZx4ncS-1" value="&lt;div&gt;Show department list&lt;/div&gt;" style="ellipse;whiteSpace=wrap;html=1;" vertex="1" parent="1">
          <mxGeometry x="280" y="420" width="200" height="40" as="geometry" />
        </mxCell>
        <mxCell id="bPBWY9slAnZx-zZx4ncS-2" value="&lt;div&gt;Show roles list&lt;/div&gt;" style="ellipse;whiteSpace=wrap;html=1;" vertex="1" parent="1">
          <mxGeometry x="500" y="470" width="200" height="40" as="geometry" />
        </mxCell>
        <mxCell id="bPBWY9slAnZx-zZx4ncS-5" value="" style="endArrow=classic;html=1;rounded=0;entryX=1;entryY=0;entryDx=0;entryDy=0;exitX=0;exitY=1;exitDx=0;exitDy=0;" edge="1" parent="1" source="bPBWY9slAnZx-zZx4ncS-4" target="bPBWY9slAnZx-zZx4ncS-2">
          <mxGeometry width="50" height="50" relative="1" as="geometry">
            <mxPoint x="620" y="300" as="sourcePoint" />
            <mxPoint x="670" y="250" as="targetPoint" />
          </mxGeometry>
        </mxCell>
        <mxCell id="bPBWY9slAnZx-zZx4ncS-6" value="" style="endArrow=classic;html=1;rounded=0;entryX=1;entryY=0.5;entryDx=0;entryDy=0;exitX=0;exitY=0.75;exitDx=0;exitDy=0;" edge="1" parent="1" source="bPBWY9slAnZx-zZx4ncS-4" target="bPBWY9slAnZx-zZx4ncS-1">
          <mxGeometry width="50" height="50" relative="1" as="geometry">
            <mxPoint x="752.5" y="280" as="sourcePoint" />
            <mxPoint x="660.5" y="336" as="targetPoint" />
          </mxGeometry>
        </mxCell>
        <mxCell id="bPBWY9slAnZx-zZx4ncS-7" value="" style="endArrow=classic;html=1;rounded=0;entryX=1;entryY=0.5;entryDx=0;entryDy=0;exitX=0;exitY=0.5;exitDx=0;exitDy=0;" edge="1" parent="1" source="bPBWY9slAnZx-zZx4ncS-4" target="hyaC-WpukuONI3WBb8m--8">
          <mxGeometry width="50" height="50" relative="1" as="geometry">
            <mxPoint x="752.5" y="250" as="sourcePoint" />
            <mxPoint x="559.5" y="292" as="targetPoint" />
          </mxGeometry>
        </mxCell>
        <mxCell id="bPBWY9slAnZx-zZx4ncS-8" value="&lt;div&gt;Create role&lt;/div&gt;" style="ellipse;whiteSpace=wrap;html=1;" vertex="1" parent="1">
          <mxGeometry x="550" y="590" width="120" height="40" as="geometry" />
        </mxCell>
        <mxCell id="bPBWY9slAnZx-zZx4ncS-9" value="&lt;div&gt;Delete role&lt;/div&gt;" style="ellipse;whiteSpace=wrap;html=1;" vertex="1" parent="1">
          <mxGeometry x="610" y="530" width="120" height="40" as="geometry" />
        </mxCell>
        <mxCell id="bPBWY9slAnZx-zZx4ncS-10" value="&lt;font style=&quot;font-size: 12px;&quot;&gt;&amp;lt;&amp;lt;extend&amp;gt;&amp;gt;&lt;/font&gt;" style="text;html=1;align=center;verticalAlign=middle;whiteSpace=wrap;rounded=0;fontSize=16;" vertex="1" parent="1">
          <mxGeometry x="660" y="505" width="80" height="20" as="geometry" />
        </mxCell>
        <mxCell id="bPBWY9slAnZx-zZx4ncS-11" value="&lt;font style=&quot;font-size: 12px;&quot;&gt;&amp;lt;&amp;lt;extend&amp;gt;&amp;gt;&lt;/font&gt;" style="text;html=1;align=center;verticalAlign=middle;whiteSpace=wrap;rounded=0;fontSize=16;" vertex="1" parent="1">
          <mxGeometry x="530" y="570" width="80" height="20" as="geometry" />
        </mxCell>
        <mxCell id="bPBWY9slAnZx-zZx4ncS-16" value="&lt;div&gt;Delete department&lt;br&gt;&lt;/div&gt;" style="ellipse;whiteSpace=wrap;html=1;" vertex="1" parent="1">
          <mxGeometry x="150" y="490" width="120" height="40" as="geometry" />
        </mxCell>
        <mxCell id="bPBWY9slAnZx-zZx4ncS-17" value="&lt;font style=&quot;font-size: 12px;&quot;&gt;&amp;lt;&amp;lt;extend&amp;gt;&amp;gt;&lt;/font&gt;" style="text;html=1;align=center;verticalAlign=middle;whiteSpace=wrap;rounded=0;fontSize=16;" vertex="1" parent="1">
          <mxGeometry x="260" y="490" width="80" height="20" as="geometry" />
        </mxCell>
        <mxCell id="bPBWY9slAnZx-zZx4ncS-19" value="&lt;div&gt;Create department&lt;br&gt;&lt;/div&gt;" style="ellipse;whiteSpace=wrap;html=1;" vertex="1" parent="1">
          <mxGeometry x="10" y="490" width="120" height="40" as="geometry" />
        </mxCell>
        <mxCell id="bPBWY9slAnZx-zZx4ncS-21" value="&lt;font style=&quot;font-size: 12px;&quot;&gt;&amp;lt;&amp;lt;extend&amp;gt;&amp;gt;&lt;/font&gt;" style="text;html=1;align=center;verticalAlign=middle;whiteSpace=wrap;rounded=0;fontSize=16;" vertex="1" parent="1">
          <mxGeometry x="170" y="440" width="80" height="20" as="geometry" />
        </mxCell>
        <mxCell id="bPBWY9slAnZx-zZx4ncS-22" value="Create user" style="ellipse;whiteSpace=wrap;html=1;" vertex="1" parent="1">
          <mxGeometry x="290" y="330" width="120" height="40" as="geometry" />
        </mxCell>
        <mxCell id="bPBWY9slAnZx-zZx4ncS-23" value="&lt;font style=&quot;font-size: 12px;&quot;&gt;&amp;lt;&amp;lt;extend&amp;gt;&amp;gt;&lt;/font&gt;" style="text;html=1;align=center;verticalAlign=middle;whiteSpace=wrap;rounded=0;fontSize=16;" vertex="1" parent="1">
          <mxGeometry x="435" y="320" width="80" height="20" as="geometry" />
        </mxCell>
        <mxCell id="bPBWY9slAnZx-zZx4ncS-25" value="Delete user" style="ellipse;whiteSpace=wrap;html=1;" vertex="1" parent="1">
          <mxGeometry x="440" y="340" width="120" height="40" as="geometry" />
        </mxCell>
        <mxCell id="bPBWY9slAnZx-zZx4ncS-26" value="&lt;font style=&quot;font-size: 12px;&quot;&gt;&amp;lt;&amp;lt;extend&amp;gt;&amp;gt;&lt;/font&gt;" style="text;html=1;align=center;verticalAlign=middle;whiteSpace=wrap;rounded=0;fontSize=16;" vertex="1" parent="1">
          <mxGeometry x="150" y="230" width="80" height="20" as="geometry" />
        </mxCell>
        <mxCell id="bPBWY9slAnZx-zZx4ncS-28" value="Show user role&amp;nbsp; list" style="ellipse;whiteSpace=wrap;html=1;" vertex="1" parent="1">
          <mxGeometry x="235" y="190" width="200" height="40" as="geometry" />
        </mxCell>
        <mxCell id="bPBWY9slAnZx-zZx4ncS-29" value="Assign role to user" style="ellipse;whiteSpace=wrap;html=1;" vertex="1" parent="1">
          <mxGeometry x="30" y="210" width="120" height="40" as="geometry" />
        </mxCell>
        <mxCell id="bPBWY9slAnZx-zZx4ncS-31" value="&lt;font style=&quot;font-size: 12px;&quot;&gt;&amp;lt;&amp;lt;extend&amp;gt;&amp;gt;&lt;/font&gt;" style="text;html=1;align=center;verticalAlign=middle;whiteSpace=wrap;rounded=0;fontSize=16;" vertex="1" parent="1">
          <mxGeometry x="330" y="310" width="80" height="20" as="geometry" />
        </mxCell>
        <mxCell id="bPBWY9slAnZx-zZx4ncS-32" value="" style="endArrow=classic;html=1;rounded=0;entryX=1;entryY=0.5;entryDx=0;entryDy=0;exitX=0;exitY=0.25;exitDx=0;exitDy=0;" edge="1" parent="1" source="bPBWY9slAnZx-zZx4ncS-4" target="bPBWY9slAnZx-zZx4ncS-28">
          <mxGeometry width="50" height="50" relative="1" as="geometry">
            <mxPoint x="752.5" y="210" as="sourcePoint" />
            <mxPoint x="429.5" y="305" as="targetPoint" />
          </mxGeometry>
        </mxCell>
        <mxCell id="bPBWY9slAnZx-zZx4ncS-33" value="" style="endArrow=none;dashed=1;html=1;rounded=0;fontSize=12;startSize=8;endSize=8;curved=1;entryX=0;entryY=1;entryDx=0;entryDy=0;exitX=1;exitY=0.5;exitDx=0;exitDy=0;" edge="1" parent="1" source="bPBWY9slAnZx-zZx4ncS-29" target="bPBWY9slAnZx-zZx4ncS-28">
          <mxGeometry width="50" height="50" relative="1" as="geometry">
            <mxPoint x="392" y="124" as="sourcePoint" />
            <mxPoint x="450" y="180" as="targetPoint" />
          </mxGeometry>
        </mxCell>
        <mxCell id="bPBWY9slAnZx-zZx4ncS-34" value="" style="endArrow=none;dashed=1;html=1;rounded=0;entryX=0;entryY=1;entryDx=0;entryDy=0;exitX=1;exitY=0;exitDx=0;exitDy=0;" edge="1" parent="1" source="bPBWY9slAnZx-zZx4ncS-22" target="hyaC-WpukuONI3WBb8m--8">
          <mxGeometry width="50" height="50" relative="1" as="geometry">
            <mxPoint x="430" y="340" as="sourcePoint" />
            <mxPoint x="480" y="290" as="targetPoint" />
          </mxGeometry>
        </mxCell>
        <mxCell id="bPBWY9slAnZx-zZx4ncS-35" value="" style="endArrow=none;dashed=1;html=1;rounded=0;entryX=1;entryY=1;entryDx=0;entryDy=0;exitX=0.5;exitY=0;exitDx=0;exitDy=0;" edge="1" parent="1" source="bPBWY9slAnZx-zZx4ncS-25" target="hyaC-WpukuONI3WBb8m--8">
          <mxGeometry width="50" height="50" relative="1" as="geometry">
            <mxPoint x="430" y="340" as="sourcePoint" />
            <mxPoint x="480" y="290" as="targetPoint" />
          </mxGeometry>
        </mxCell>
        <mxCell id="bPBWY9slAnZx-zZx4ncS-36" value="" style="endArrow=none;dashed=1;html=1;rounded=0;entryX=0;entryY=1;entryDx=0;entryDy=0;exitX=1;exitY=0;exitDx=0;exitDy=0;" edge="1" parent="1" source="bPBWY9slAnZx-zZx4ncS-19" target="bPBWY9slAnZx-zZx4ncS-1">
          <mxGeometry width="50" height="50" relative="1" as="geometry">
            <mxPoint x="430" y="340" as="sourcePoint" />
            <mxPoint x="480" y="290" as="targetPoint" />
          </mxGeometry>
        </mxCell>
        <mxCell id="bPBWY9slAnZx-zZx4ncS-37" value="" style="endArrow=none;dashed=1;html=1;rounded=0;entryX=0.5;entryY=1;entryDx=0;entryDy=0;exitX=1;exitY=0;exitDx=0;exitDy=0;" edge="1" parent="1" source="bPBWY9slAnZx-zZx4ncS-16" target="bPBWY9slAnZx-zZx4ncS-1">
          <mxGeometry width="50" height="50" relative="1" as="geometry">
            <mxPoint x="305" y="580" as="sourcePoint" />
            <mxPoint x="355" y="530" as="targetPoint" />
          </mxGeometry>
        </mxCell>
        <mxCell id="bPBWY9slAnZx-zZx4ncS-38" value="" style="endArrow=none;dashed=1;html=1;rounded=0;entryX=0.5;entryY=1;entryDx=0;entryDy=0;exitX=0.5;exitY=0;exitDx=0;exitDy=0;" edge="1" parent="1" source="bPBWY9slAnZx-zZx4ncS-8" target="bPBWY9slAnZx-zZx4ncS-2">
          <mxGeometry width="50" height="50" relative="1" as="geometry">
            <mxPoint x="430" y="340" as="sourcePoint" />
            <mxPoint x="480" y="290" as="targetPoint" />
          </mxGeometry>
        </mxCell>
        <mxCell id="bPBWY9slAnZx-zZx4ncS-39" value="" style="endArrow=none;dashed=1;html=1;rounded=0;entryX=1;entryY=1;entryDx=0;entryDy=0;exitX=0.5;exitY=0;exitDx=0;exitDy=0;" edge="1" parent="1" source="bPBWY9slAnZx-zZx4ncS-9" target="bPBWY9slAnZx-zZx4ncS-2">
          <mxGeometry width="50" height="50" relative="1" as="geometry">
            <mxPoint x="430" y="340" as="sourcePoint" />
            <mxPoint x="480" y="290" as="targetPoint" />
          </mxGeometry>
        </mxCell>
        <mxCell id="bPBWY9slAnZx-zZx4ncS-40" value="Show departmental user list" style="ellipse;whiteSpace=wrap;html=1;" vertex="1" parent="1">
          <mxGeometry x="425" y="80" width="200" height="40" as="geometry" />
        </mxCell>
        <mxCell id="bPBWY9slAnZx-zZx4ncS-41" value="Show role-related user list" style="ellipse;whiteSpace=wrap;html=1;" vertex="1" parent="1">
          <mxGeometry x="130" y="70" width="200" height="40" as="geometry" />
        </mxCell>
        <mxCell id="bPBWY9slAnZx-zZx4ncS-42" value="&lt;div&gt;Search role&lt;/div&gt;" style="ellipse;whiteSpace=wrap;html=1;" vertex="1" parent="1">
          <mxGeometry x="425" y="590" width="120" height="40" as="geometry" />
        </mxCell>
        <mxCell id="bPBWY9slAnZx-zZx4ncS-43" value="&lt;font style=&quot;font-size: 12px;&quot;&gt;&amp;lt;&amp;lt;extend&amp;gt;&amp;gt;&lt;/font&gt;" style="text;html=1;align=center;verticalAlign=middle;whiteSpace=wrap;rounded=0;fontSize=16;" vertex="1" parent="1">
          <mxGeometry x="450" y="570" width="80" height="20" as="geometry" />
        </mxCell>
        <mxCell id="bPBWY9slAnZx-zZx4ncS-45" value="" style="endArrow=none;dashed=1;html=1;rounded=0;entryX=1;entryY=0;entryDx=0;entryDy=0;exitX=0;exitY=1;exitDx=0;exitDy=0;" edge="1" parent="1" source="bPBWY9slAnZx-zZx4ncS-2" target="bPBWY9slAnZx-zZx4ncS-42">
          <mxGeometry width="50" height="50" relative="1" as="geometry">
            <mxPoint x="245" y="590" as="sourcePoint" />
            <mxPoint x="250" y="540" as="targetPoint" />
          </mxGeometry>
        </mxCell>
        <mxCell id="bPBWY9slAnZx-zZx4ncS-46" value="&lt;div&gt;Search department&lt;br&gt;&lt;/div&gt;" style="ellipse;whiteSpace=wrap;html=1;" vertex="1" parent="1">
          <mxGeometry x="50" y="420" width="120" height="40" as="geometry" />
        </mxCell>
        <mxCell id="bPBWY9slAnZx-zZx4ncS-47" value="&lt;font style=&quot;font-size: 12px;&quot;&gt;&amp;lt;&amp;lt;extend&amp;gt;&amp;gt;&lt;/font&gt;" style="text;html=1;align=center;verticalAlign=middle;whiteSpace=wrap;rounded=0;fontSize=16;" vertex="1" parent="1">
          <mxGeometry x="60" y="470" width="80" height="20" as="geometry" />
        </mxCell>
        <mxCell id="bPBWY9slAnZx-zZx4ncS-48" value="" style="endArrow=none;dashed=1;html=1;rounded=0;entryX=0;entryY=0;entryDx=0;entryDy=0;exitX=1;exitY=0.5;exitDx=0;exitDy=0;" edge="1" parent="1" source="bPBWY9slAnZx-zZx4ncS-46" target="bPBWY9slAnZx-zZx4ncS-1">
          <mxGeometry width="50" height="50" relative="1" as="geometry">
            <mxPoint x="142" y="576" as="sourcePoint" />
            <mxPoint x="179" y="534" as="targetPoint" />
          </mxGeometry>
        </mxCell>
        <mxCell id="bPBWY9slAnZx-zZx4ncS-49" value="Search user" style="ellipse;whiteSpace=wrap;html=1;" vertex="1" parent="1">
          <mxGeometry x="190" y="300" width="120" height="40" as="geometry" />
        </mxCell>
        <mxCell id="bPBWY9slAnZx-zZx4ncS-50" value="" style="endArrow=none;dashed=1;html=1;rounded=0;entryX=0;entryY=0.5;entryDx=0;entryDy=0;exitX=1;exitY=0.5;exitDx=0;exitDy=0;" edge="1" parent="1" source="bPBWY9slAnZx-zZx4ncS-49" target="hyaC-WpukuONI3WBb8m--8">
          <mxGeometry width="50" height="50" relative="1" as="geometry">
            <mxPoint x="242" y="426" as="sourcePoint" />
            <mxPoint x="269" y="374" as="targetPoint" />
          </mxGeometry>
        </mxCell>
        <mxCell id="bPBWY9slAnZx-zZx4ncS-51" value="&lt;font style=&quot;font-size: 12px;&quot;&gt;&amp;lt;&amp;lt;extend&amp;gt;&amp;gt;&lt;/font&gt;" style="text;html=1;align=center;verticalAlign=middle;whiteSpace=wrap;rounded=0;fontSize=16;" vertex="1" parent="1">
          <mxGeometry x="275" y="290" width="80" height="20" as="geometry" />
        </mxCell>
        <mxCell id="bPBWY9slAnZx-zZx4ncS-53" value="Search role/user" style="ellipse;whiteSpace=wrap;html=1;" vertex="1" parent="1">
          <mxGeometry x="60" y="150" width="120" height="40" as="geometry" />
        </mxCell>
        <mxCell id="bPBWY9slAnZx-zZx4ncS-54" value="&lt;font style=&quot;font-size: 12px;&quot;&gt;&amp;lt;&amp;lt;extend&amp;gt;&amp;gt;&lt;/font&gt;" style="text;html=1;align=center;verticalAlign=middle;whiteSpace=wrap;rounded=0;fontSize=16;" vertex="1" parent="1">
          <mxGeometry x="130" y="180" width="80" height="20" as="geometry" />
        </mxCell>
        <mxCell id="bPBWY9slAnZx-zZx4ncS-56" value="" style="endArrow=none;dashed=1;html=1;rounded=0;fontSize=12;startSize=8;endSize=8;curved=1;entryX=0;entryY=0.5;entryDx=0;entryDy=0;exitX=1;exitY=0.5;exitDx=0;exitDy=0;" edge="1" parent="1" source="bPBWY9slAnZx-zZx4ncS-53" target="bPBWY9slAnZx-zZx4ncS-28">
          <mxGeometry width="50" height="50" relative="1" as="geometry">
            <mxPoint x="405" y="300" as="sourcePoint" />
            <mxPoint x="439" y="274" as="targetPoint" />
          </mxGeometry>
        </mxCell>
        <mxCell id="bPBWY9slAnZx-zZx4ncS-57" value="Search user" style="ellipse;whiteSpace=wrap;html=1;" vertex="1" parent="1">
          <mxGeometry x="600" y="30" width="120" height="40" as="geometry" />
        </mxCell>
        <mxCell id="bPBWY9slAnZx-zZx4ncS-58" value="Search department" style="ellipse;whiteSpace=wrap;html=1;" vertex="1" parent="1">
          <mxGeometry x="330" y="10" width="120" height="40" as="geometry" />
        </mxCell>
        <mxCell id="bPBWY9slAnZx-zZx4ncS-59" value="" style="endArrow=none;dashed=1;html=1;rounded=0;fontSize=12;startSize=8;endSize=8;curved=1;entryX=1;entryY=0;entryDx=0;entryDy=0;exitX=0.5;exitY=1;exitDx=0;exitDy=0;" edge="1" parent="1" source="bPBWY9slAnZx-zZx4ncS-57" target="bPBWY9slAnZx-zZx4ncS-40">
          <mxGeometry width="50" height="50" relative="1" as="geometry">
            <mxPoint x="620" y="150" as="sourcePoint" />
            <mxPoint x="720" y="170" as="targetPoint" />
          </mxGeometry>
        </mxCell>
        <mxCell id="bPBWY9slAnZx-zZx4ncS-60" value="" style="endArrow=none;dashed=1;html=1;rounded=0;fontSize=12;startSize=8;endSize=8;curved=1;entryX=0;entryY=0;entryDx=0;entryDy=0;exitX=0.5;exitY=1;exitDx=0;exitDy=0;" edge="1" parent="1" source="bPBWY9slAnZx-zZx4ncS-58" target="bPBWY9slAnZx-zZx4ncS-40">
          <mxGeometry width="50" height="50" relative="1" as="geometry">
            <mxPoint x="400" y="80" as="sourcePoint" />
            <mxPoint x="421" y="116" as="targetPoint" />
          </mxGeometry>
        </mxCell>
        <mxCell id="bPBWY9slAnZx-zZx4ncS-61" value="&lt;font style=&quot;font-size: 12px;&quot;&gt;&amp;lt;&amp;lt;extend&amp;gt;&amp;gt;&lt;/font&gt;" style="text;html=1;align=center;verticalAlign=middle;whiteSpace=wrap;rounded=0;fontSize=16;" vertex="1" parent="1">
          <mxGeometry x="220" y="50" width="80" height="20" as="geometry" />
        </mxCell>
        <mxCell id="bPBWY9slAnZx-zZx4ncS-63" value="&lt;font style=&quot;font-size: 12px;&quot;&gt;&amp;lt;&amp;lt;extend&amp;gt;&amp;gt;&lt;/font&gt;" style="text;html=1;align=center;verticalAlign=middle;whiteSpace=wrap;rounded=0;fontSize=16;" vertex="1" parent="1">
          <mxGeometry x="610" y="70" width="80" height="20" as="geometry" />
        </mxCell>
        <mxCell id="bPBWY9slAnZx-zZx4ncS-65" value="" style="endArrow=classic;html=1;rounded=0;entryX=1;entryY=1;entryDx=0;entryDy=0;exitX=0;exitY=0;exitDx=0;exitDy=0;" edge="1" parent="1" source="bPBWY9slAnZx-zZx4ncS-4" target="bPBWY9slAnZx-zZx4ncS-40">
          <mxGeometry width="50" height="50" relative="1" as="geometry">
            <mxPoint x="763" y="233" as="sourcePoint" />
            <mxPoint x="610" y="260" as="targetPoint" />
          </mxGeometry>
        </mxCell>
        <mxCell id="bPBWY9slAnZx-zZx4ncS-66" value="" style="endArrow=classic;html=1;rounded=0;entryX=1;entryY=1;entryDx=0;entryDy=0;exitX=-0.051;exitY=0.119;exitDx=0;exitDy=0;exitPerimeter=0;" edge="1" parent="1" source="bPBWY9slAnZx-zZx4ncS-4" target="bPBWY9slAnZx-zZx4ncS-41">
          <mxGeometry width="50" height="50" relative="1" as="geometry">
            <mxPoint x="690" y="200" as="sourcePoint" />
            <mxPoint x="558" y="144" as="targetPoint" />
          </mxGeometry>
        </mxCell>
        <mxCell id="bPBWY9slAnZx-zZx4ncS-67" value="Search user" style="ellipse;whiteSpace=wrap;html=1;" vertex="1" parent="1">
          <mxGeometry x="155" y="10" width="120" height="40" as="geometry" />
        </mxCell>
        <mxCell id="bPBWY9slAnZx-zZx4ncS-68" value="" style="endArrow=none;dashed=1;html=1;rounded=0;fontSize=12;startSize=8;endSize=8;curved=1;entryX=0.5;entryY=0;entryDx=0;entryDy=0;exitX=0.5;exitY=1;exitDx=0;exitDy=0;" edge="1" parent="1" source="bPBWY9slAnZx-zZx4ncS-67" target="bPBWY9slAnZx-zZx4ncS-41">
          <mxGeometry width="50" height="50" relative="1" as="geometry">
            <mxPoint x="339" y="80" as="sourcePoint" />
            <mxPoint x="300" y="116" as="targetPoint" />
          </mxGeometry>
        </mxCell>
        <mxCell id="bPBWY9slAnZx-zZx4ncS-69" value="&lt;font style=&quot;font-size: 12px;&quot;&gt;&amp;lt;&amp;lt;extend&amp;gt;&amp;gt;&lt;/font&gt;" style="text;html=1;align=center;verticalAlign=middle;whiteSpace=wrap;rounded=0;fontSize=16;" vertex="1" parent="1">
          <mxGeometry x="410" y="50" width="80" height="20" as="geometry" />
        </mxCell>
        <mxCell id="bPBWY9slAnZx-zZx4ncS-70" value="&lt;div&gt;Search role&lt;/div&gt;" style="ellipse;whiteSpace=wrap;html=1;" vertex="1" parent="1">
          <mxGeometry x="10" y="10" width="120" height="40" as="geometry" />
        </mxCell>
        <mxCell id="bPBWY9slAnZx-zZx4ncS-71" value="&lt;font style=&quot;font-size: 12px;&quot;&gt;&amp;lt;&amp;lt;extend&amp;gt;&amp;gt;&lt;/font&gt;" style="text;html=1;align=center;verticalAlign=middle;whiteSpace=wrap;rounded=0;fontSize=16;" vertex="1" parent="1">
          <mxGeometry x="100" y="40" width="80" height="20" as="geometry" />
        </mxCell>
        <mxCell id="bPBWY9slAnZx-zZx4ncS-72" value="" style="endArrow=none;dashed=1;html=1;rounded=0;fontSize=12;startSize=8;endSize=8;curved=1;entryX=0;entryY=0;entryDx=0;entryDy=0;exitX=0.5;exitY=1;exitDx=0;exitDy=0;" edge="1" parent="1" source="bPBWY9slAnZx-zZx4ncS-70" target="bPBWY9slAnZx-zZx4ncS-41">
          <mxGeometry width="50" height="50" relative="1" as="geometry">
            <mxPoint x="270" y="90" as="sourcePoint" />
            <mxPoint x="300" y="130" as="targetPoint" />
          </mxGeometry>
        </mxCell>
        <mxCell id="bPBWY9slAnZx-zZx4ncS-77" value="Export to JSON" style="ellipse;whiteSpace=wrap;html=1;" vertex="1" parent="1">
          <mxGeometry x="190" y="120" width="120" height="40" as="geometry" />
        </mxCell>
        <mxCell id="bPBWY9slAnZx-zZx4ncS-78" value="&lt;font style=&quot;font-size: 12px;&quot;&gt;&amp;lt;&amp;lt;extend&amp;gt;&amp;gt;&lt;/font&gt;" style="text;html=1;align=center;verticalAlign=middle;whiteSpace=wrap;rounded=0;fontSize=16;" vertex="1" parent="1">
          <mxGeometry x="250" y="160" width="80" height="20" as="geometry" />
        </mxCell>
        <mxCell id="bPBWY9slAnZx-zZx4ncS-79" value="" style="endArrow=none;dashed=1;html=1;rounded=0;entryX=0;entryY=0;entryDx=0;entryDy=0;exitX=0.5;exitY=1;exitDx=0;exitDy=0;" edge="1" parent="1" source="bPBWY9slAnZx-zZx4ncS-77" target="bPBWY9slAnZx-zZx4ncS-28">
          <mxGeometry width="50" height="50" relative="1" as="geometry">
            <mxPoint x="774.5" y="432" as="sourcePoint" />
            <mxPoint x="752.5" y="390" as="targetPoint" />
          </mxGeometry>
        </mxCell>
        <mxCell id="bPBWY9slAnZx-zZx4ncS-80" value="Export to JSON" style="ellipse;whiteSpace=wrap;html=1;" vertex="1" parent="1">
          <mxGeometry x="465" y="10" width="120" height="40" as="geometry" />
        </mxCell>
        <mxCell id="bPBWY9slAnZx-zZx4ncS-81" value="&lt;font style=&quot;font-size: 12px;&quot;&gt;&amp;lt;&amp;lt;extend&amp;gt;&amp;gt;&lt;/font&gt;" style="text;html=1;align=center;verticalAlign=middle;whiteSpace=wrap;rounded=0;fontSize=16;" vertex="1" parent="1">
          <mxGeometry x="520" y="50" width="80" height="20" as="geometry" />
        </mxCell>
        <mxCell id="bPBWY9slAnZx-zZx4ncS-82" value="" style="endArrow=none;dashed=1;html=1;rounded=0;entryX=0.5;entryY=0;entryDx=0;entryDy=0;exitX=0.5;exitY=1;exitDx=0;exitDy=0;" edge="1" parent="1" source="bPBWY9slAnZx-zZx4ncS-80" target="bPBWY9slAnZx-zZx4ncS-40">
          <mxGeometry width="50" height="50" relative="1" as="geometry">
            <mxPoint x="904.5" y="312" as="sourcePoint" />
            <mxPoint x="882.5" y="270" as="targetPoint" />
          </mxGeometry>
        </mxCell>
        <mxCell id="bPBWY9slAnZx-zZx4ncS-83" value="Export to JSON" style="ellipse;whiteSpace=wrap;html=1;" vertex="1" parent="1">
          <mxGeometry x="190" y="250" width="120" height="40" as="geometry" />
        </mxCell>
        <mxCell id="bPBWY9slAnZx-zZx4ncS-84" value="&lt;font style=&quot;font-size: 12px;&quot;&gt;&amp;lt;&amp;lt;extend&amp;gt;&amp;gt;&lt;/font&gt;" style="text;html=1;align=center;verticalAlign=middle;whiteSpace=wrap;rounded=0;fontSize=16;" vertex="1" parent="1">
          <mxGeometry x="300" y="250" width="80" height="20" as="geometry" />
        </mxCell>
        <mxCell id="bPBWY9slAnZx-zZx4ncS-85" value="" style="endArrow=none;dashed=1;html=1;rounded=0;entryX=0;entryY=0;entryDx=0;entryDy=0;exitX=1;exitY=0.5;exitDx=0;exitDy=0;" edge="1" parent="1" source="bPBWY9slAnZx-zZx4ncS-83" target="hyaC-WpukuONI3WBb8m--8">
          <mxGeometry width="50" height="50" relative="1" as="geometry">
            <mxPoint x="944.5" y="467" as="sourcePoint" />
            <mxPoint x="922.5" y="425" as="targetPoint" />
          </mxGeometry>
        </mxCell>
        <mxCell id="bPBWY9slAnZx-zZx4ncS-86" value="Export to JSON" style="ellipse;whiteSpace=wrap;html=1;" vertex="1" parent="1">
          <mxGeometry x="150" y="370" width="120" height="40" as="geometry" />
        </mxCell>
        <mxCell id="bPBWY9slAnZx-zZx4ncS-87" value="&lt;font style=&quot;font-size: 12px;&quot;&gt;&amp;lt;&amp;lt;extend&amp;gt;&amp;gt;&lt;/font&gt;" style="text;html=1;align=center;verticalAlign=middle;whiteSpace=wrap;rounded=0;fontSize=16;" vertex="1" parent="1">
          <mxGeometry x="190" y="410" width="80" height="20" as="geometry" />
        </mxCell>
        <mxCell id="bPBWY9slAnZx-zZx4ncS-88" value="" style="endArrow=none;dashed=1;html=1;rounded=0;entryX=0.5;entryY=0;entryDx=0;entryDy=0;exitX=1;exitY=1;exitDx=0;exitDy=0;" edge="1" parent="1" source="bPBWY9slAnZx-zZx4ncS-86" target="bPBWY9slAnZx-zZx4ncS-1">
          <mxGeometry width="50" height="50" relative="1" as="geometry">
            <mxPoint x="134.5" y="382" as="sourcePoint" />
            <mxPoint x="230" y="490" as="targetPoint" />
          </mxGeometry>
        </mxCell>
        <mxCell id="bPBWY9slAnZx-zZx4ncS-89" value="Export to JSON" style="ellipse;whiteSpace=wrap;html=1;" vertex="1" parent="1">
          <mxGeometry x="360" y="525" width="120" height="40" as="geometry" />
        </mxCell>
        <mxCell id="bPBWY9slAnZx-zZx4ncS-90" value="&lt;font style=&quot;font-size: 12px;&quot;&gt;&amp;lt;&amp;lt;extend&amp;gt;&amp;gt;&lt;/font&gt;" style="text;html=1;align=center;verticalAlign=middle;whiteSpace=wrap;rounded=0;fontSize=16;" vertex="1" parent="1">
          <mxGeometry x="390" y="505" width="80" height="20" as="geometry" />
        </mxCell>
        <mxCell id="bPBWY9slAnZx-zZx4ncS-91" value="" style="endArrow=none;dashed=1;html=1;rounded=0;entryX=0;entryY=0.5;entryDx=0;entryDy=0;exitX=1;exitY=0;exitDx=0;exitDy=0;" edge="1" parent="1" source="bPBWY9slAnZx-zZx4ncS-89" target="bPBWY9slAnZx-zZx4ncS-2">
          <mxGeometry width="50" height="50" relative="1" as="geometry">
            <mxPoint x="384.5" y="497" as="sourcePoint" />
            <mxPoint x="362.5" y="455" as="targetPoint" />
          </mxGeometry>
        </mxCell>
        <mxCell id="bPBWY9slAnZx-zZx4ncS-92" value="Export to JSON" style="ellipse;whiteSpace=wrap;html=1;" vertex="1" parent="1">
          <mxGeometry y="90" width="120" height="40" as="geometry" />
        </mxCell>
        <mxCell id="bPBWY9slAnZx-zZx4ncS-93" value="&lt;font style=&quot;font-size: 12px;&quot;&gt;&amp;lt;&amp;lt;extend&amp;gt;&amp;gt;&lt;/font&gt;" style="text;html=1;align=center;verticalAlign=middle;whiteSpace=wrap;rounded=0;fontSize=16;" vertex="1" parent="1">
          <mxGeometry x="30" y="70" width="80" height="20" as="geometry" />
        </mxCell>
        <mxCell id="bPBWY9slAnZx-zZx4ncS-94" value="" style="endArrow=none;dashed=1;html=1;rounded=0;entryX=0;entryY=1;entryDx=0;entryDy=0;exitX=1;exitY=0;exitDx=0;exitDy=0;" edge="1" parent="1" source="bPBWY9slAnZx-zZx4ncS-92" target="bPBWY9slAnZx-zZx4ncS-41">
          <mxGeometry width="50" height="50" relative="1" as="geometry">
            <mxPoint x="64.5" y="142" as="sourcePoint" />
            <mxPoint x="42.5" y="100" as="targetPoint" />
          </mxGeometry>
        </mxCell>
      </root>
    </mxGraphModel>
  </diagram>
</mxfile>
